<svg width="73" height="73" viewBox="0 0 73 73" fill="none" xmlns="http://www.w3.org/2000/svg">
<rect width="73" height="73" fill="#F2E7E7" fill-opacity="0.403922"/>
<path d="M37.8961 5.0507C37.4913 4.73511 36.9927 4.56372 36.4795 4.56372C35.9662 4.56372 35.4676 4.73511 35.0628 5.0507L2.28125 30.6121L5.11684 34.1982L9.125 31.0729V59.3125C9.12741 60.5218 9.60888 61.6809 10.464 62.536C11.3191 63.3911 12.4782 63.8726 13.6875 63.875H59.3125C60.5218 63.8726 61.6809 63.3911 62.536 62.536C63.3911 61.6809 63.8726 60.5218 63.875 59.3125V31.0935L67.8832 34.2188L70.7188 30.6326L37.8961 5.0507ZM41.0625 59.3125H31.9375V41.0625H41.0625V59.3125ZM45.625 59.3125V41.0625C45.625 39.8525 45.1443 38.692 44.2887 37.8363C43.433 36.9807 42.2725 36.5 41.0625 36.5H31.9375C30.7274 36.5 29.567 36.9807 28.7113 37.8363C27.8557 38.692 27.375 39.8525 27.375 41.0625V59.3125H13.6875V27.5165L36.5 9.74551L59.3125 27.5393V59.3125H45.625Z" fill="#F12020"/>
</svg>
