<svg width="73" height="73" viewBox="0 0 73 73" fill="none" xmlns="http://www.w3.org/2000/svg">
<path fill-rule="evenodd" clip-rule="evenodd" d="M35.9616 14.5118L36.5 15.0563L37.0384 14.5148C40.3209 11.2324 44.7728 9.38831 49.4149 9.38831C54.057 9.38831 58.509 11.2324 61.7915 14.5148C65.0739 17.7973 66.918 22.2493 66.918 26.8914C66.918 31.5335 65.0739 35.9855 61.7915 39.2679L41.3393 59.717C40.7038 60.3526 39.9494 60.8567 39.119 61.2006C38.2887 61.5445 37.3988 61.7216 36.5 61.7216C35.6013 61.7216 34.7113 61.5445 33.881 61.2006C33.0507 60.8567 32.2962 60.3526 31.6607 59.717L11.2086 39.2679C9.58325 37.6426 8.29399 35.7131 7.41437 33.5895C6.53476 31.4659 6.08203 29.1899 6.08203 26.8914C6.08203 24.5928 6.53476 22.3168 7.41437 20.1932C8.29398 18.0697 9.58325 16.1401 11.2086 14.5148C12.8339 12.8895 14.7634 11.6003 16.887 10.7206C19.0105 9.84104 21.2866 9.38831 23.5851 9.38831C25.8836 9.38831 28.1597 9.84104 30.2832 10.7206C32.4068 11.6003 34.3363 12.8865 35.9616 14.5118ZM32.7344 17.739C30.3075 15.3124 27.016 13.9494 23.584 13.9497C20.1521 13.95 16.8608 15.3136 14.4343 17.7405C12.0077 20.1675 10.6446 23.459 10.6449 26.8909C10.6452 30.3229 12.0088 33.6142 14.4358 36.0407L34.8879 56.4929C35.3157 56.9201 35.8955 57.16 36.5 57.16C37.1046 57.16 37.6844 56.9201 38.1121 56.4929L58.5643 36.0407C60.9723 33.6103 62.3197 30.3251 62.3118 26.9038C62.3039 23.4825 60.9412 20.2036 58.522 17.7843C56.1028 15.3651 52.8238 14.0024 49.4025 13.9945C45.9812 13.9866 42.696 15.334 40.2656 17.742L38.1121 19.8955C37.6844 20.3227 37.1046 20.5627 36.5 20.5627C35.8955 20.5627 35.3157 20.3227 34.8879 19.8955L32.7344 17.739Z" fill="#DE8458"/>
</svg>
