<svg width="424" height="85" viewBox="0 0 424 85" fill="none" xmlns="http://www.w3.org/2000/svg">
<path d="M2.32031 43.1484H6.42188V13.6172H2.32031V11.7891H28.4531C30.9375 11.7891 33.1797 12.1641 35.1797 12.9141C37.1797 13.6484 38.8828 14.7266 40.2891 16.1484C41.6953 17.5703 42.7734 19.3125 43.5234 21.375C44.2891 23.4219 44.6719 25.7578 44.6719 28.3828C44.6719 31.0234 44.2891 33.375 43.5234 35.4375C42.7734 37.5 41.6953 39.2422 40.2891 40.6641C38.8828 42.0703 37.1797 43.1484 35.1797 43.8984C33.1797 44.6328 30.9375 45 28.4531 45H2.32031V43.1484ZM22.5938 43.1484C23.3281 43.1484 23.9922 43.0781 24.5859 42.9375C25.1953 42.7812 25.7266 42.5 26.1797 42.0938C26.6328 41.6875 27.0234 41.1406 27.3516 40.4531C27.6797 39.75 27.9453 38.8516 28.1484 37.7578C28.3672 36.6641 28.5234 35.3516 28.6172 33.8203C28.7266 32.2734 28.7812 30.4609 28.7812 28.3828C28.7812 26.3047 28.7266 24.5 28.6172 22.9688C28.5234 21.4375 28.3672 20.125 28.1484 19.0312C27.9453 17.9375 27.6797 17.0391 27.3516 16.3359C27.0234 15.6328 26.6328 15.0859 26.1797 14.6953C25.7266 14.2891 25.1953 14.0078 24.5859 13.8516C23.9922 13.6953 23.3281 13.6172 22.5938 13.6172V43.1484ZM49.5234 31.7109C49.5234 29.6172 49.9531 27.7266 50.8125 26.0391C51.6719 24.3516 52.8594 22.9141 54.375 21.7266C55.9062 20.5391 57.7109 19.625 59.7891 18.9844C61.8828 18.3438 64.1484 18.0234 66.5859 18.0234C68.4609 18.0234 70.1562 18.2109 71.6719 18.5859C73.2031 18.9609 74.5547 19.4766 75.7266 20.1328C76.9141 20.7734 77.9297 21.5391 78.7734 22.4297C79.6328 23.3203 80.3359 24.2812 80.8828 25.3125C81.4453 26.3438 81.8594 27.4297 82.125 28.5703C82.3906 29.6953 82.5234 30.8281 82.5234 31.9688H63.7266C63.7266 34.3594 63.8281 36.3047 64.0312 37.8047C64.25 39.3047 64.5859 40.4844 65.0391 41.3438C65.5078 42.1875 66.1016 42.7656 66.8203 43.0781C67.5547 43.3906 68.4375 43.5469 69.4688 43.5469C70.7812 43.5469 72.0156 43.3828 73.1719 43.0547C74.3281 42.7266 75.3594 42.2656 76.2656 41.6719C77.1875 41.0625 77.9531 40.3359 78.5625 39.4922C79.1719 38.6328 79.5859 37.6719 79.8047 36.6094H82.0078C81.8516 38.0625 81.4062 39.3672 80.6719 40.5234C79.9375 41.6641 78.9609 42.6328 77.7422 43.4297C76.5391 44.2266 75.1172 44.8359 73.4766 45.2578C71.8516 45.6797 70.0703 45.8906 68.1328 45.8906C65.0859 45.8906 62.3984 45.5781 60.0703 44.9531C57.7578 44.3125 55.8203 43.3906 54.2578 42.1875C52.6953 40.9688 51.5156 39.4844 50.7188 37.7344C49.9219 35.9688 49.5234 33.9609 49.5234 31.7109ZM70.3125 29.6016C70.2656 27.6484 70.1719 26.0234 70.0312 24.7266C69.8906 23.4297 69.6875 22.3906 69.4219 21.6094C69.1562 20.8281 68.8281 20.2812 68.4375 19.9688C68.0469 19.6406 67.5781 19.4766 67.0312 19.4766C66.4844 19.4766 66.0078 19.6406 65.6016 19.9688C65.2109 20.2812 64.8828 20.8281 64.6172 21.6094C64.3516 22.3906 64.1484 23.4297 64.0078 24.7266C63.8672 26.0234 63.7812 27.6484 63.75 29.6016H70.3125ZM88.5234 20.6016H84.4453V18.9141H106.289V20.6016H103.148L109.547 36.4688C109.875 35.6094 110.234 34.6719 110.625 33.6562C111.016 32.625 111.406 31.5859 111.797 30.5391C112.203 29.4922 112.594 28.4766 112.969 27.4922C113.344 26.5078 113.68 25.625 113.977 24.8438C114.273 24.0625 114.516 23.4141 114.703 22.8984C114.891 22.3828 115 22.0781 115.031 21.9844C115.078 21.875 115.102 21.7812 115.102 21.7031C115.102 21.5 114.992 21.3281 114.773 21.1875C114.57 21.0469 114.273 20.9375 113.883 20.8594C113.508 20.7656 113.055 20.7031 112.523 20.6719C112.008 20.625 111.438 20.6016 110.812 20.6016V18.9141H121.734V20.6016C121.047 20.6016 120.453 20.6328 119.953 20.6953C119.469 20.7422 119.055 20.8281 118.711 20.9531C118.383 21.0625 118.109 21.2109 117.891 21.3984C117.688 21.5859 117.531 21.8125 117.422 22.0781C117.297 22.3438 117.102 22.8281 116.836 23.5312C116.57 24.2188 116.25 25.0469 115.875 26.0156C115.5 26.9844 115.086 28.0625 114.633 29.25C114.195 30.4219 113.742 31.6328 113.273 32.8828C112.805 34.1328 112.336 35.375 111.867 36.6094C111.414 37.8438 110.984 39 110.578 40.0781C110.188 41.1562 109.836 42.125 109.523 42.9844C109.211 43.8438 108.969 44.5156 108.797 45H98.7422L88.5234 20.6016ZM124.172 29.1797C124.172 26.5859 124.586 24.1719 125.414 21.9375C126.242 19.7031 127.484 17.7734 129.141 16.1484C130.812 14.5078 132.891 13.2266 135.375 12.3047C137.859 11.3672 140.758 10.8984 144.07 10.8984C146.477 10.8984 148.711 11.2656 150.773 12C152.836 12.7344 154.742 13.9219 156.492 15.5625L159.375 11.25H160.992V26.4609H159.164C158.602 23.9766 157.836 21.9141 156.867 20.2734C155.914 18.6328 154.859 17.3281 153.703 16.3594C152.562 15.375 151.367 14.6875 150.117 14.2969C148.883 13.8906 147.711 13.6875 146.602 13.6875C146.07 13.6875 145.539 13.7344 145.008 13.8281C144.492 13.9062 143.992 14.1016 143.508 14.4141C143.023 14.7109 142.57 15.1484 142.148 15.7266C141.727 16.3047 141.359 17.0938 141.047 18.0938C140.75 19.0781 140.508 20.2969 140.32 21.75C140.148 23.2031 140.062 24.9531 140.062 27C140.062 29.1406 140.125 31.0234 140.25 32.6484C140.391 34.2734 140.594 35.6797 140.859 36.8672C141.141 38.0547 141.477 39.0391 141.867 39.8203C142.273 40.6016 142.742 41.2266 143.273 41.6953C143.82 42.1641 144.43 42.5 145.102 42.7031C145.773 42.8906 146.508 42.9844 147.305 42.9844C148.867 42.9844 150.328 42.75 151.688 42.2812C153.047 41.7969 154.25 41.0391 155.297 40.0078C156.344 38.9766 157.203 37.6484 157.875 36.0234C158.562 34.3984 159.008 32.4453 159.211 30.1641H161.273C161.148 32.3672 160.75 34.4219 160.078 36.3281C159.422 38.2344 158.414 39.8984 157.055 41.3203C155.695 42.7422 153.945 43.8594 151.805 44.6719C149.664 45.4844 147.055 45.8906 143.977 45.8906C140.977 45.8906 138.258 45.4844 135.82 44.6719C133.383 43.8594 131.297 42.7188 129.562 41.25C127.844 39.7656 126.516 38 125.578 35.9531C124.641 33.9062 124.172 31.6484 124.172 29.1797ZM166.805 31.9688C166.805 29.9531 167.172 28.0938 167.906 26.3906C168.641 24.6875 169.742 23.2188 171.211 21.9844C172.68 20.7344 174.523 19.7656 176.742 19.0781C178.961 18.375 181.555 18.0234 184.523 18.0234C187.492 18.0234 190.078 18.375 192.281 19.0781C194.5 19.7656 196.344 20.7344 197.812 21.9844C199.281 23.2188 200.383 24.6875 201.117 26.3906C201.852 28.0938 202.219 29.9531 202.219 31.9688C202.219 33.9844 201.852 35.8438 201.117 37.5469C200.383 39.2344 199.281 40.7031 197.812 41.9531C196.344 43.1875 194.5 44.1562 192.281 44.8594C190.078 45.5469 187.492 45.8906 184.523 45.8906C181.555 45.8906 178.961 45.5469 176.742 44.8594C174.523 44.1562 172.68 43.1875 171.211 41.9531C169.742 40.7031 168.641 39.2344 167.906 37.5469C167.172 35.8438 166.805 33.9844 166.805 31.9688ZM184.523 44.4375C185.117 44.4375 185.625 44.2422 186.047 43.8516C186.469 43.4609 186.812 42.7891 187.078 41.8359C187.344 40.8828 187.531 39.6094 187.641 38.0156C187.766 36.4062 187.828 34.3906 187.828 31.9688C187.828 29.5312 187.766 27.5156 187.641 25.9219C187.531 24.3125 187.344 23.0312 187.078 22.0781C186.812 21.125 186.469 20.4531 186.047 20.0625C185.625 19.6719 185.117 19.4766 184.523 19.4766C183.914 19.4766 183.398 19.6719 182.977 20.0625C182.555 20.4531 182.211 21.125 181.945 22.0781C181.68 23.0312 181.484 24.3125 181.359 25.9219C181.25 27.5156 181.195 29.5312 181.195 31.9688C181.195 34.3906 181.25 36.4062 181.359 38.0156C181.484 39.6094 181.68 40.8828 181.945 41.8359C182.211 42.7891 182.555 43.4609 182.977 43.8516C183.398 44.2422 183.914 44.4375 184.523 44.4375ZM206.203 43.3125H210.305V20.6016H206.203V18.9141H224.25V21.9141C224.75 21.3047 225.352 20.7578 226.055 20.2734C226.773 19.7891 227.562 19.3828 228.422 19.0547C229.281 18.7109 230.195 18.4531 231.164 18.2812C232.148 18.1094 233.156 18.0234 234.188 18.0234C236.312 18.0234 238.062 18.3047 239.438 18.8672C240.828 19.4141 241.922 20.2031 242.719 21.2344C243.516 22.25 244.07 23.4922 244.383 24.9609C244.695 26.4141 244.852 28.0391 244.852 29.8359V43.3125H248.953V45H228.562V43.3125H230.906V29.8359C230.906 28.2266 230.859 26.9141 230.766 25.8984C230.672 24.8672 230.508 24.0625 230.273 23.4844C230.039 22.8906 229.727 22.4844 229.336 22.2656C228.945 22.0312 228.453 21.9141 227.859 21.9141C227.266 21.9141 226.742 22.0391 226.289 22.2891C225.836 22.5391 225.453 22.8906 225.141 23.3438C224.844 23.7969 224.617 24.3359 224.461 24.9609C224.32 25.5859 224.25 26.2656 224.25 27V43.3125H226.57V45H206.203V43.3125ZM251.625 43.3125H255.727V20.6016H251.625V18.9141H269.672V21.9141C270.172 21.3047 270.773 20.7578 271.477 20.2734C272.195 19.7891 272.984 19.3828 273.844 19.0547C274.703 18.7109 275.617 18.4531 276.586 18.2812C277.57 18.1094 278.578 18.0234 279.609 18.0234C281.734 18.0234 283.484 18.3047 284.859 18.8672C286.25 19.4141 287.344 20.2031 288.141 21.2344C288.938 22.25 289.492 23.4922 289.805 24.9609C290.117 26.4141 290.273 28.0391 290.273 29.8359V43.3125H294.375V45H273.984V43.3125H276.328V29.8359C276.328 28.2266 276.281 26.9141 276.188 25.8984C276.094 24.8672 275.93 24.0625 275.695 23.4844C275.461 22.8906 275.148 22.4844 274.758 22.2656C274.367 22.0312 273.875 21.9141 273.281 21.9141C272.688 21.9141 272.164 22.0391 271.711 22.2891C271.258 22.5391 270.875 22.8906 270.562 23.3438C270.266 23.7969 270.039 24.3359 269.883 24.9609C269.742 25.5859 269.672 26.2656 269.672 27V43.3125H271.992V45H251.625V43.3125ZM297.258 31.7109C297.258 29.6172 297.688 27.7266 298.547 26.0391C299.406 24.3516 300.594 22.9141 302.109 21.7266C303.641 20.5391 305.445 19.625 307.523 18.9844C309.617 18.3438 311.883 18.0234 314.32 18.0234C316.195 18.0234 317.891 18.2109 319.406 18.5859C320.938 18.9609 322.289 19.4766 323.461 20.1328C324.648 20.7734 325.664 21.5391 326.508 22.4297C327.367 23.3203 328.07 24.2812 328.617 25.3125C329.18 26.3438 329.594 27.4297 329.859 28.5703C330.125 29.6953 330.258 30.8281 330.258 31.9688H311.461C311.461 34.3594 311.562 36.3047 311.766 37.8047C311.984 39.3047 312.32 40.4844 312.773 41.3438C313.242 42.1875 313.836 42.7656 314.555 43.0781C315.289 43.3906 316.172 43.5469 317.203 43.5469C318.516 43.5469 319.75 43.3828 320.906 43.0547C322.062 42.7266 323.094 42.2656 324 41.6719C324.922 41.0625 325.688 40.3359 326.297 39.4922C326.906 38.6328 327.32 37.6719 327.539 36.6094H329.742C329.586 38.0625 329.141 39.3672 328.406 40.5234C327.672 41.6641 326.695 42.6328 325.477 43.4297C324.273 44.2266 322.852 44.8359 321.211 45.2578C319.586 45.6797 317.805 45.8906 315.867 45.8906C312.82 45.8906 310.133 45.5781 307.805 44.9531C305.492 44.3125 303.555 43.3906 301.992 42.1875C300.43 40.9688 299.25 39.4844 298.453 37.7344C297.656 35.9688 297.258 33.9609 297.258 31.7109ZM318.047 29.6016C318 27.6484 317.906 26.0234 317.766 24.7266C317.625 23.4297 317.422 22.3906 317.156 21.6094C316.891 20.8281 316.562 20.2812 316.172 19.9688C315.781 19.6406 315.312 19.4766 314.766 19.4766C314.219 19.4766 313.742 19.6406 313.336 19.9688C312.945 20.2812 312.617 20.8281 312.352 21.6094C312.086 22.3906 311.883 23.4297 311.742 24.7266C311.602 26.0234 311.516 27.6484 311.484 29.6016H318.047ZM334.477 31.7109C334.477 29.6641 334.891 27.7969 335.719 26.1094C336.547 24.4219 337.688 22.9844 339.141 21.7969C340.609 20.5938 342.344 19.6641 344.344 19.0078C346.344 18.3516 348.523 18.0234 350.883 18.0234C353.852 18.0234 356.398 18.2656 358.523 18.75C360.648 19.2188 362.391 19.8359 363.75 20.6016C365.125 21.3672 366.133 22.2266 366.773 23.1797C367.414 24.1328 367.734 25.0781 367.734 26.0156C367.734 26.7031 367.562 27.3516 367.219 27.9609C366.891 28.5703 366.43 29.1016 365.836 29.5547C365.258 30.0078 364.578 30.3672 363.797 30.6328C363.016 30.8984 362.172 31.0312 361.266 31.0312C360.359 31.0312 359.508 30.9062 358.711 30.6562C357.914 30.3906 357.219 30.0391 356.625 29.6016C356.047 29.1484 355.586 28.625 355.242 28.0312C354.898 27.4375 354.727 26.7969 354.727 26.1094C354.727 25.4688 354.875 24.8672 355.172 24.3047C355.484 23.7266 355.906 23.2188 356.438 22.7812C356.984 22.3438 357.617 21.9844 358.336 21.7031C359.07 21.4219 359.859 21.2578 360.703 21.2109C359.812 20.8828 358.93 20.6328 358.055 20.4609C357.195 20.2734 356.398 20.1797 355.664 20.1797C354.461 20.1797 353.422 20.3438 352.547 20.6719C351.672 20.9844 350.945 21.5781 350.367 22.4531C349.805 23.3125 349.383 24.5078 349.102 26.0391C348.82 27.5703 348.68 29.5469 348.68 31.9688C348.68 34.3594 348.781 36.3047 348.984 37.8047C349.203 39.3047 349.539 40.4844 349.992 41.3438C350.461 42.1875 351.055 42.7656 351.773 43.0781C352.508 43.3906 353.391 43.5469 354.422 43.5469C355.734 43.5469 356.969 43.3828 358.125 43.0547C359.281 42.7266 360.312 42.2656 361.219 41.6719C362.141 41.0625 362.906 40.3359 363.516 39.4922C364.125 38.6328 364.539 37.6719 364.758 36.6094H366.961C366.805 38.0625 366.359 39.3672 365.625 40.5234C364.891 41.6641 363.914 42.6328 362.695 43.4297C361.492 44.2266 360.07 44.8359 358.43 45.2578C356.805 45.6797 355.023 45.8906 353.086 45.8906C350.039 45.8906 347.352 45.5781 345.023 44.9531C342.711 44.3125 340.773 43.3906 339.211 42.1875C337.648 40.9688 336.469 39.4844 335.672 37.7344C334.875 35.9688 334.477 33.9609 334.477 31.7109ZM374.297 20.6016H370.195V18.9141H374.297C375.875 18.9141 377.289 18.6484 378.539 18.1172C379.805 17.5703 380.875 16.8672 381.75 16.0078C382.641 15.1328 383.32 14.1562 383.789 13.0781C384.258 12 384.492 10.9219 384.492 9.84375H388.242V18.9141H395.789V20.6016H388.242V35.0391C388.242 36.7109 388.328 38.0781 388.5 39.1406C388.688 40.1875 388.945 41.0078 389.273 41.6016C389.617 42.1953 390.016 42.6016 390.469 42.8203C390.938 43.0234 391.453 43.125 392.016 43.125C392.562 43.125 393.094 43.0078 393.609 42.7734C394.125 42.5234 394.578 42.1328 394.969 41.6016C395.359 41.0547 395.672 40.3516 395.906 39.4922C396.141 38.6172 396.258 37.5469 396.258 36.2812C396.258 35.9844 396.25 35.6797 396.234 35.3672C396.219 35.0391 396.195 34.7031 396.164 34.3594H398.133C398.18 35.1406 398.203 35.8516 398.203 36.4922C398.203 38.4453 397.93 40.0391 397.383 41.2734C396.852 42.4922 396.086 43.4453 395.086 44.1328C394.086 44.8203 392.867 45.2891 391.43 45.5391C390.008 45.7891 388.406 45.9141 386.625 45.9141C384.625 45.9141 382.859 45.7188 381.328 45.3281C379.797 44.9375 378.508 44.3203 377.461 43.4766C376.414 42.6172 375.625 41.5156 375.094 40.1719C374.562 38.8281 374.297 37.1953 374.297 35.2734V20.6016Z" fill="#080707"/>
</svg>
