<svg width="279" height="43" viewBox="0 0 279 43" fill="none" xmlns="http://www.w3.org/2000/svg">
<path d="M1.54688 29.676H4.28125V9.98846H1.54688V8.76971H18.9688C20.625 8.76971 22.1198 9.01971 23.4531 9.51971C24.7865 10.0093 25.9219 10.728 26.8594 11.676C27.7969 12.6239 28.5156 13.7853 29.0156 15.1603C29.526 16.5249 29.7812 18.0822 29.7812 19.8322C29.7812 21.5926 29.526 23.1603 29.0156 24.5353C28.5156 25.9103 27.7969 27.0718 26.8594 28.0197C25.9219 28.9572 24.7865 29.676 23.4531 30.176C22.1198 30.6655 20.625 30.9103 18.9688 30.9103H1.54688V29.676ZM15.0625 29.676C15.5521 29.676 15.9948 29.6291 16.3906 29.5353C16.7969 29.4312 17.151 29.2437 17.4531 28.9728C17.7552 28.702 18.0156 28.3374 18.2344 27.8791C18.4531 27.4103 18.6302 26.8114 18.7656 26.0822C18.9115 25.353 19.0156 24.478 19.0781 23.4572C19.151 22.426 19.1875 21.2176 19.1875 19.8322C19.1875 18.4468 19.151 17.2437 19.0781 16.2228C19.0156 15.202 18.9115 14.327 18.7656 13.5978C18.6302 12.8687 18.4531 12.2697 18.2344 11.801C18.0156 11.3322 17.7552 10.9676 17.4531 10.7072C17.151 10.4364 16.7969 10.2489 16.3906 10.1447C15.9948 10.0405 15.5521 9.98846 15.0625 9.98846V29.676ZM33.0156 22.051C33.0156 20.6551 33.3021 19.3947 33.875 18.2697C34.4479 17.1447 35.2396 16.1864 36.25 15.3947C37.2708 14.603 38.474 13.9937 39.8594 13.5666C41.2552 13.1395 42.7656 12.926 44.3906 12.926C45.6406 12.926 46.7708 13.051 47.7812 13.301C48.8021 13.551 49.7031 13.8947 50.4844 14.3322C51.276 14.7593 51.9531 15.2697 52.5156 15.8635C53.0885 16.4572 53.5573 17.0978 53.9219 17.7853C54.2969 18.4728 54.5729 19.1968 54.75 19.9572C54.9271 20.7072 55.0156 21.4624 55.0156 22.2228H42.4844C42.4844 23.8166 42.5521 25.1135 42.6875 26.1135C42.8333 27.1135 43.0573 27.8999 43.3594 28.4728C43.6719 29.0353 44.0677 29.4208 44.5469 29.6291C45.0365 29.8374 45.625 29.9416 46.3125 29.9416C47.1875 29.9416 48.0104 29.8322 48.7812 29.6135C49.5521 29.3947 50.2396 29.0874 50.8438 28.6916C51.4583 28.2853 51.9688 27.801 52.375 27.2385C52.7812 26.6655 53.0573 26.0249 53.2031 25.3166H54.6719C54.5677 26.2853 54.2708 27.1551 53.7812 27.926C53.2917 28.6864 52.6406 29.3322 51.8281 29.8635C51.026 30.3947 50.0781 30.801 48.9844 31.0822C47.901 31.3635 46.7135 31.5041 45.4219 31.5041C43.3906 31.5041 41.599 31.2958 40.0469 30.8791C38.5052 30.452 37.2135 29.8374 36.1719 29.0353C35.1302 28.2228 34.3438 27.2333 33.8125 26.0666C33.2812 24.8895 33.0156 23.551 33.0156 22.051ZM46.875 20.6447C46.8438 19.3426 46.7812 18.2593 46.6875 17.3947C46.5938 16.5301 46.4583 15.8374 46.2812 15.3166C46.1042 14.7958 45.8854 14.4312 45.625 14.2228C45.3646 14.0041 45.0521 13.8947 44.6875 13.8947C44.3229 13.8947 44.0052 14.0041 43.7344 14.2228C43.474 14.4312 43.2552 14.7958 43.0781 15.3166C42.901 15.8374 42.7656 16.5301 42.6719 17.3947C42.5781 18.2593 42.5208 19.3426 42.5 20.6447H46.875ZM59.0156 14.6447H56.2969V13.5197H70.8594V14.6447H68.7656L73.0312 25.2228C73.25 24.6499 73.4896 24.0249 73.75 23.3478C74.0104 22.6603 74.2708 21.9676 74.5312 21.2697C74.8021 20.5718 75.0625 19.8947 75.3125 19.2385C75.5625 18.5822 75.7865 17.9937 75.9844 17.4728C76.1823 16.952 76.3438 16.5197 76.4688 16.176C76.5938 15.8322 76.6667 15.6291 76.6875 15.5666C76.7188 15.4937 76.7344 15.4312 76.7344 15.3791C76.7344 15.2437 76.6615 15.1291 76.5156 15.0353C76.3802 14.9416 76.1823 14.8687 75.9219 14.8166C75.6719 14.7541 75.3698 14.7124 75.0156 14.6916C74.6719 14.6603 74.2917 14.6447 73.875 14.6447V13.5197H81.1562V14.6447C80.6979 14.6447 80.3021 14.6655 79.9688 14.7072C79.6458 14.7385 79.3698 14.7958 79.1406 14.8791C78.9219 14.952 78.7396 15.051 78.5938 15.176C78.4583 15.301 78.3542 15.452 78.2812 15.6291C78.1979 15.8062 78.0677 16.1291 77.8906 16.5978C77.7135 17.0562 77.5 17.6083 77.25 18.2541C77 18.8999 76.724 19.6187 76.4219 20.4103C76.1302 21.1916 75.8281 21.9989 75.5156 22.8322C75.2031 23.6655 74.8906 24.4937 74.5781 25.3166C74.276 26.1395 73.9896 26.9103 73.7188 27.6291C73.4583 28.3478 73.224 28.9937 73.0156 29.5666C72.8073 30.1395 72.6458 30.5874 72.5312 30.9103H65.8281L59.0156 14.6447ZM82.7812 20.3635C82.7812 18.6343 83.0573 17.0249 83.6094 15.5353C84.1615 14.0458 84.9896 12.7593 86.0938 11.676C87.2083 10.5822 88.5938 9.72805 90.25 9.11346C91.9062 8.48846 93.8385 8.17596 96.0469 8.17596C97.651 8.17596 99.1406 8.42076 100.516 8.91034C101.891 9.39992 103.161 10.1916 104.328 11.2853L106.25 8.41034H107.328V18.551H106.109C105.734 16.8947 105.224 15.5197 104.578 14.426C103.943 13.3322 103.24 12.4624 102.469 11.8166C101.708 11.1603 100.911 10.702 100.078 10.4416C99.2552 10.1708 98.474 10.0353 97.7344 10.0353C97.3802 10.0353 97.026 10.0666 96.6719 10.1291C96.3281 10.1812 95.9948 10.3114 95.6719 10.5197C95.349 10.7176 95.0469 11.0093 94.7656 11.3947C94.4844 11.7801 94.2396 12.3062 94.0312 12.9728C93.8333 13.6291 93.6719 14.4416 93.5469 15.4103C93.4323 16.3791 93.375 17.5458 93.375 18.9103C93.375 20.3374 93.4167 21.5926 93.5 22.676C93.5938 23.7593 93.7292 24.6968 93.9062 25.4885C94.0938 26.2801 94.3177 26.9364 94.5781 27.4572C94.849 27.978 95.1615 28.3947 95.5156 28.7072C95.8802 29.0197 96.2865 29.2437 96.7344 29.3791C97.1823 29.5041 97.6719 29.5666 98.2031 29.5666C99.2448 29.5666 100.219 29.4103 101.125 29.0978C102.031 28.7749 102.833 28.2697 103.531 27.5822C104.229 26.8947 104.802 26.0093 105.25 24.926C105.708 23.8426 106.005 22.5405 106.141 21.0197H107.516C107.432 22.4885 107.167 23.8583 106.719 25.1291C106.281 26.3999 105.609 27.5093 104.703 28.4572C103.797 29.4051 102.63 30.1499 101.203 30.6916C99.776 31.2333 98.0365 31.5041 95.9844 31.5041C93.9844 31.5041 92.1719 31.2333 90.5469 30.6916C88.9219 30.1499 87.5312 29.3895 86.375 28.4103C85.2292 27.4208 84.3438 26.2437 83.7188 24.8791C83.0938 23.5145 82.7812 22.0093 82.7812 20.3635ZM111.203 22.2228C111.203 20.8791 111.448 19.6395 111.938 18.5041C112.427 17.3687 113.161 16.3895 114.141 15.5666C115.12 14.7333 116.349 14.0874 117.828 13.6291C119.307 13.1603 121.036 12.926 123.016 12.926C124.995 12.926 126.719 13.1603 128.188 13.6291C129.667 14.0874 130.896 14.7333 131.875 15.5666C132.854 16.3895 133.589 17.3687 134.078 18.5041C134.568 19.6395 134.812 20.8791 134.812 22.2228C134.812 23.5666 134.568 24.8062 134.078 25.9416C133.589 27.0666 132.854 28.0458 131.875 28.8791C130.896 29.702 129.667 30.3478 128.188 30.8166C126.719 31.2749 124.995 31.5041 123.016 31.5041C121.036 31.5041 119.307 31.2749 117.828 30.8166C116.349 30.3478 115.12 29.702 114.141 28.8791C113.161 28.0458 112.427 27.0666 111.938 25.9416C111.448 24.8062 111.203 23.5666 111.203 22.2228ZM123.016 30.5353C123.411 30.5353 123.75 30.4051 124.031 30.1447C124.312 29.8843 124.542 29.4364 124.719 28.801C124.896 28.1655 125.021 27.3166 125.094 26.2541C125.177 25.1812 125.219 23.8374 125.219 22.2228C125.219 20.5978 125.177 19.2541 125.094 18.1916C125.021 17.1187 124.896 16.2645 124.719 15.6291C124.542 14.9937 124.312 14.5458 124.031 14.2853C123.75 14.0249 123.411 13.8947 123.016 13.8947C122.609 13.8947 122.266 14.0249 121.984 14.2853C121.703 14.5458 121.474 14.9937 121.297 15.6291C121.12 16.2645 120.99 17.1187 120.906 18.1916C120.833 19.2541 120.797 20.5978 120.797 22.2228C120.797 23.8374 120.833 25.1812 120.906 26.2541C120.99 27.3166 121.12 28.1655 121.297 28.801C121.474 29.4364 121.703 29.8843 121.984 30.1447C122.266 30.4051 122.609 30.5353 123.016 30.5353ZM137.469 29.7853H140.203V14.6447H137.469V13.5197H149.5V15.5197C149.833 15.1135 150.234 14.7489 150.703 14.426C151.182 14.103 151.708 13.8322 152.281 13.6135C152.854 13.3843 153.464 13.2124 154.109 13.0978C154.766 12.9833 155.438 12.926 156.125 12.926C157.542 12.926 158.708 13.1135 159.625 13.4885C160.552 13.853 161.281 14.3791 161.812 15.0666C162.344 15.7437 162.714 16.5718 162.922 17.551C163.13 18.5197 163.234 19.603 163.234 20.801V29.7853H165.969V30.9103H152.375V29.7853H153.938V20.801C153.938 19.728 153.906 18.853 153.844 18.176C153.781 17.4885 153.672 16.952 153.516 16.5666C153.359 16.1708 153.151 15.8999 152.891 15.7541C152.63 15.5978 152.302 15.5197 151.906 15.5197C151.51 15.5197 151.161 15.603 150.859 15.7697C150.557 15.9364 150.302 16.1708 150.094 16.4728C149.896 16.7749 149.745 17.1343 149.641 17.551C149.547 17.9676 149.5 18.4208 149.5 18.9103V29.7853H151.047V30.9103H137.469V29.7853ZM167.75 29.7853H170.484V14.6447H167.75V13.5197H179.781V15.5197C180.115 15.1135 180.516 14.7489 180.984 14.426C181.464 14.103 181.99 13.8322 182.562 13.6135C183.135 13.3843 183.745 13.2124 184.391 13.0978C185.047 12.9833 185.719 12.926 186.406 12.926C187.823 12.926 188.99 13.1135 189.906 13.4885C190.833 13.853 191.562 14.3791 192.094 15.0666C192.625 15.7437 192.995 16.5718 193.203 17.551C193.411 18.5197 193.516 19.603 193.516 20.801V29.7853H196.25V30.9103H182.656V29.7853H184.219V20.801C184.219 19.728 184.188 18.853 184.125 18.176C184.062 17.4885 183.953 16.952 183.797 16.5666C183.641 16.1708 183.432 15.8999 183.172 15.7541C182.911 15.5978 182.583 15.5197 182.188 15.5197C181.792 15.5197 181.443 15.603 181.141 15.7697C180.839 15.9364 180.583 16.1708 180.375 16.4728C180.177 16.7749 180.026 17.1343 179.922 17.551C179.828 17.9676 179.781 18.4208 179.781 18.9103V29.7853H181.328V30.9103H167.75V29.7853ZM198.172 22.051C198.172 20.6551 198.458 19.3947 199.031 18.2697C199.604 17.1447 200.396 16.1864 201.406 15.3947C202.427 14.603 203.63 13.9937 205.016 13.5666C206.411 13.1395 207.922 12.926 209.547 12.926C210.797 12.926 211.927 13.051 212.938 13.301C213.958 13.551 214.859 13.8947 215.641 14.3322C216.432 14.7593 217.109 15.2697 217.672 15.8635C218.245 16.4572 218.714 17.0978 219.078 17.7853C219.453 18.4728 219.729 19.1968 219.906 19.9572C220.083 20.7072 220.172 21.4624 220.172 22.2228H207.641C207.641 23.8166 207.708 25.1135 207.844 26.1135C207.99 27.1135 208.214 27.8999 208.516 28.4728C208.828 29.0353 209.224 29.4208 209.703 29.6291C210.193 29.8374 210.781 29.9416 211.469 29.9416C212.344 29.9416 213.167 29.8322 213.938 29.6135C214.708 29.3947 215.396 29.0874 216 28.6916C216.615 28.2853 217.125 27.801 217.531 27.2385C217.938 26.6655 218.214 26.0249 218.359 25.3166H219.828C219.724 26.2853 219.427 27.1551 218.938 27.926C218.448 28.6864 217.797 29.3322 216.984 29.8635C216.182 30.3947 215.234 30.801 214.141 31.0822C213.057 31.3635 211.87 31.5041 210.578 31.5041C208.547 31.5041 206.755 31.2958 205.203 30.8791C203.661 30.452 202.37 29.8374 201.328 29.0353C200.286 28.2228 199.5 27.2333 198.969 26.0666C198.438 24.8895 198.172 23.551 198.172 22.051ZM212.031 20.6447C212 19.3426 211.938 18.2593 211.844 17.3947C211.75 16.5301 211.615 15.8374 211.438 15.3166C211.26 14.7958 211.042 14.4312 210.781 14.2228C210.521 14.0041 210.208 13.8947 209.844 13.8947C209.479 13.8947 209.161 14.0041 208.891 14.2228C208.63 14.4312 208.411 14.7958 208.234 15.3166C208.057 15.8374 207.922 16.5301 207.828 17.3947C207.734 18.2593 207.677 19.3426 207.656 20.6447H212.031ZM222.984 22.051C222.984 20.6864 223.26 19.4416 223.812 18.3166C224.365 17.1916 225.125 16.2333 226.094 15.4416C227.073 14.6395 228.229 14.0197 229.562 13.5822C230.896 13.1447 232.349 12.926 233.922 12.926C235.901 12.926 237.599 13.0874 239.016 13.4103C240.432 13.7228 241.594 14.1343 242.5 14.6447C243.417 15.1551 244.089 15.728 244.516 16.3635C244.943 16.9989 245.156 17.6291 245.156 18.2541C245.156 18.7124 245.042 19.1447 244.812 19.551C244.594 19.9572 244.286 20.3114 243.891 20.6135C243.505 20.9155 243.052 21.1551 242.531 21.3322C242.01 21.5093 241.448 21.5978 240.844 21.5978C240.24 21.5978 239.672 21.5145 239.141 21.3478C238.609 21.1708 238.146 20.9364 237.75 20.6447C237.365 20.3426 237.057 19.9937 236.828 19.5978C236.599 19.202 236.484 18.7749 236.484 18.3166C236.484 17.8895 236.583 17.4885 236.781 17.1135C236.99 16.728 237.271 16.3895 237.625 16.0978C237.99 15.8062 238.411 15.5666 238.891 15.3791C239.38 15.1916 239.906 15.0822 240.469 15.051C239.875 14.8322 239.286 14.6655 238.703 14.551C238.13 14.426 237.599 14.3635 237.109 14.3635C236.307 14.3635 235.615 14.4728 235.031 14.6916C234.448 14.8999 233.964 15.2958 233.578 15.8791C233.203 16.452 232.922 17.2489 232.734 18.2697C232.547 19.2905 232.453 20.6083 232.453 22.2228C232.453 23.8166 232.521 25.1135 232.656 26.1135C232.802 27.1135 233.026 27.8999 233.328 28.4728C233.641 29.0353 234.036 29.4208 234.516 29.6291C235.005 29.8374 235.594 29.9416 236.281 29.9416C237.156 29.9416 237.979 29.8322 238.75 29.6135C239.521 29.3947 240.208 29.0874 240.812 28.6916C241.427 28.2853 241.938 27.801 242.344 27.2385C242.75 26.6655 243.026 26.0249 243.172 25.3166H244.641C244.536 26.2853 244.24 27.1551 243.75 27.926C243.26 28.6864 242.609 29.3322 241.797 29.8635C240.995 30.3947 240.047 30.801 238.953 31.0822C237.87 31.3635 236.682 31.5041 235.391 31.5041C233.359 31.5041 231.568 31.2958 230.016 30.8791C228.474 30.452 227.182 29.8374 226.141 29.0353C225.099 28.2228 224.312 27.2333 223.781 26.0666C223.25 24.8895 222.984 23.551 222.984 22.051ZM249.531 14.6447H246.797V13.5197H249.531C250.583 13.5197 251.526 13.3426 252.359 12.9885C253.203 12.6239 253.917 12.1551 254.5 11.5822C255.094 10.9989 255.547 10.3478 255.859 9.62909C256.172 8.91034 256.328 8.19159 256.328 7.47284H258.828V13.5197H263.859V14.6447H258.828V24.2697C258.828 25.3843 258.885 26.2958 259 27.0041C259.125 27.702 259.297 28.2489 259.516 28.6447C259.745 29.0405 260.01 29.3114 260.312 29.4572C260.625 29.5926 260.969 29.6603 261.344 29.6603C261.708 29.6603 262.062 29.5822 262.406 29.426C262.75 29.2593 263.052 28.9989 263.312 28.6447C263.573 28.2801 263.781 27.8114 263.938 27.2385C264.094 26.6551 264.172 25.9416 264.172 25.0978C264.172 24.8999 264.167 24.6968 264.156 24.4885C264.146 24.2697 264.13 24.0458 264.109 23.8166H265.422C265.453 24.3374 265.469 24.8114 265.469 25.2385C265.469 26.5405 265.286 27.603 264.922 28.426C264.568 29.2385 264.057 29.8739 263.391 30.3322C262.724 30.7905 261.911 31.103 260.953 31.2697C260.005 31.4364 258.938 31.5197 257.75 31.5197C256.417 31.5197 255.24 31.3895 254.219 31.1291C253.198 30.8687 252.339 30.4572 251.641 29.8947C250.943 29.3218 250.417 28.5874 250.062 27.6916C249.708 26.7958 249.531 25.7072 249.531 24.426V14.6447Z" fill="#080707"/>
</svg>
