<svg width="140" height="42" viewBox="0 0 140 42" fill="none" xmlns="http://www.w3.org/2000/svg">
<path d="M1.16016 22.0742H3.21094V7.30859H1.16016V6.39453H14.2266C15.4688 6.39453 16.5898 6.58203 17.5898 6.95703C18.5898 7.32422 19.4414 7.86328 20.1445 8.57422C20.8477 9.28516 21.3867 10.1562 21.7617 11.1875C22.1445 12.2109 22.3359 13.3789 22.3359 14.6914C22.3359 16.0117 22.1445 17.1875 21.7617 18.2188C21.3867 19.25 20.8477 20.1211 20.1445 20.832C19.4414 21.5352 18.5898 22.0742 17.5898 22.4492C16.5898 22.8164 15.4688 23 14.2266 23H1.16016V22.0742ZM11.2969 22.0742C11.6641 22.0742 11.9961 22.0391 12.293 21.9688C12.5977 21.8906 12.8633 21.75 13.0898 21.5469C13.3164 21.3438 13.5117 21.0703 13.6758 20.7266C13.8398 20.375 13.9727 19.9258 14.0742 19.3789C14.1836 18.832 14.2617 18.1758 14.3086 17.4102C14.3633 16.6367 14.3906 15.7305 14.3906 14.6914C14.3906 13.6523 14.3633 12.75 14.3086 11.9844C14.2617 11.2188 14.1836 10.5625 14.0742 10.0156C13.9727 9.46875 13.8398 9.01953 13.6758 8.66797C13.5117 8.31641 13.3164 8.04297 13.0898 7.84766C12.8633 7.64453 12.5977 7.50391 12.293 7.42578C11.9961 7.34766 11.6641 7.30859 11.2969 7.30859V22.0742ZM24.7617 16.3555C24.7617 15.3086 24.9766 14.3633 25.4062 13.5195C25.8359 12.6758 26.4297 11.957 27.1875 11.3633C27.9531 10.7695 28.8555 10.3125 29.8945 9.99219C30.9414 9.67188 32.0742 9.51172 33.293 9.51172C34.2305 9.51172 35.0781 9.60547 35.8359 9.79297C36.6016 9.98047 37.2773 10.2383 37.8633 10.5664C38.457 10.8867 38.9648 11.2695 39.3867 11.7148C39.8164 12.1602 40.168 12.6406 40.4414 13.1562C40.7227 13.6719 40.9297 14.2148 41.0625 14.7852C41.1953 15.3477 41.2617 15.9141 41.2617 16.4844H31.8633C31.8633 17.6797 31.9141 18.6523 32.0156 19.4023C32.125 20.1523 32.293 20.7422 32.5195 21.1719C32.7539 21.5938 33.0508 21.8828 33.4102 22.0391C33.7773 22.1953 34.2188 22.2734 34.7344 22.2734C35.3906 22.2734 36.0078 22.1914 36.5859 22.0273C37.1641 21.8633 37.6797 21.6328 38.1328 21.3359C38.5938 21.0312 38.9766 20.668 39.2812 20.2461C39.5859 19.8164 39.793 19.3359 39.9023 18.8047H41.0039C40.9258 19.5312 40.7031 20.1836 40.3359 20.7617C39.9688 21.332 39.4805 21.8164 38.8711 22.2148C38.2695 22.6133 37.5586 22.918 36.7383 23.1289C35.9258 23.3398 35.0352 23.4453 34.0664 23.4453C32.543 23.4453 31.1992 23.2891 30.0352 22.9766C28.8789 22.6562 27.9102 22.1953 27.1289 21.5938C26.3477 20.9844 25.7578 20.2422 25.3594 19.3672C24.9609 18.4844 24.7617 17.4805 24.7617 16.3555ZM35.1562 15.3008C35.1328 14.3242 35.0859 13.5117 35.0156 12.8633C34.9453 12.2148 34.8438 11.6953 34.7109 11.3047C34.5781 10.9141 34.4141 10.6406 34.2188 10.4844C34.0234 10.3203 33.7891 10.2383 33.5156 10.2383C33.2422 10.2383 33.0039 10.3203 32.8008 10.4844C32.6055 10.6406 32.4414 10.9141 32.3086 11.3047C32.1758 11.6953 32.0742 12.2148 32.0039 12.8633C31.9336 13.5117 31.8906 14.3242 31.875 15.3008H35.1562ZM44.2617 10.8008H42.2227V9.95703H53.1445V10.8008H51.5742L54.7734 18.7344C54.9375 18.3047 55.1172 17.8359 55.3125 17.3281C55.5078 16.8125 55.7031 16.293 55.8984 15.7695C56.1016 15.2461 56.2969 14.7383 56.4844 14.2461C56.6719 13.7539 56.8398 13.3125 56.9883 12.9219C57.1367 12.5312 57.2578 12.207 57.3516 11.9492C57.4453 11.6914 57.5 11.5391 57.5156 11.4922C57.5391 11.4375 57.5508 11.3906 57.5508 11.3516C57.5508 11.25 57.4961 11.1641 57.3867 11.0938C57.2852 11.0234 57.1367 10.9688 56.9414 10.9297C56.7539 10.8828 56.5273 10.8516 56.2617 10.8359C56.0039 10.8125 55.7188 10.8008 55.4062 10.8008V9.95703H60.8672V10.8008C60.5234 10.8008 60.2266 10.8164 59.9766 10.8477C59.7344 10.8711 59.5273 10.9141 59.3555 10.9766C59.1914 11.0312 59.0547 11.1055 58.9453 11.1992C58.8438 11.293 58.7656 11.4062 58.7109 11.5391C58.6484 11.6719 58.5508 11.9141 58.418 12.2656C58.2852 12.6094 58.125 13.0234 57.9375 13.5078C57.75 13.9922 57.543 14.5312 57.3164 15.125C57.0977 15.7109 56.8711 16.3164 56.6367 16.9414C56.4023 17.5664 56.168 18.1875 55.9336 18.8047C55.707 19.4219 55.4922 20 55.2891 20.5391C55.0938 21.0781 54.918 21.5625 54.7617 21.9922C54.6055 22.4219 54.4844 22.7578 54.3984 23H49.3711L44.2617 10.8008ZM62.0859 15.0898C62.0859 13.793 62.293 12.5859 62.707 11.4688C63.1211 10.3516 63.7422 9.38672 64.5703 8.57422C65.4062 7.75391 66.4453 7.11328 67.6875 6.65234C68.9297 6.18359 70.3789 5.94922 72.0352 5.94922C73.2383 5.94922 74.3555 6.13281 75.3867 6.5C76.418 6.86719 77.3711 7.46094 78.2461 8.28125L79.6875 6.125H80.4961V13.7305H79.582C79.3008 12.4883 78.918 11.457 78.4336 10.6367C77.957 9.81641 77.4297 9.16406 76.8516 8.67969C76.2812 8.1875 75.6836 7.84375 75.0586 7.64844C74.4414 7.44531 73.8555 7.34375 73.3008 7.34375C73.0352 7.34375 72.7695 7.36719 72.5039 7.41406C72.2461 7.45312 71.9961 7.55078 71.7539 7.70703C71.5117 7.85547 71.2852 8.07422 71.0742 8.36328C70.8633 8.65234 70.6797 9.04688 70.5234 9.54688C70.375 10.0391 70.2539 10.6484 70.1602 11.375C70.0742 12.1016 70.0312 12.9766 70.0312 14C70.0312 15.0703 70.0625 16.0117 70.125 16.8242C70.1953 17.6367 70.2969 18.3398 70.4297 18.9336C70.5703 19.5273 70.7383 20.0195 70.9336 20.4102C71.1367 20.8008 71.3711 21.1133 71.6367 21.3477C71.9102 21.582 72.2148 21.75 72.5508 21.8516C72.8867 21.9453 73.2539 21.9922 73.6523 21.9922C74.4336 21.9922 75.1641 21.875 75.8438 21.6406C76.5234 21.3984 77.125 21.0195 77.6484 20.5039C78.1719 19.9883 78.6016 19.3242 78.9375 18.5117C79.2812 17.6992 79.5039 16.7227 79.6055 15.582H80.6367C80.5742 16.6836 80.375 17.7109 80.0391 18.6641C79.7109 19.6172 79.207 20.4492 78.5273 21.1602C77.8477 21.8711 76.9727 22.4297 75.9023 22.8359C74.832 23.2422 73.5273 23.4453 71.9883 23.4453C70.4883 23.4453 69.1289 23.2422 67.9102 22.8359C66.6914 22.4297 65.6484 21.8594 64.7812 21.125C63.9219 20.3828 63.2578 19.5 62.7891 18.4766C62.3203 17.4531 62.0859 16.3242 62.0859 15.0898ZM83.4023 16.4844C83.4023 15.4766 83.5859 14.5469 83.9531 13.6953C84.3203 12.8438 84.8711 12.1094 85.6055 11.4922C86.3398 10.8672 87.2617 10.3828 88.3711 10.0391C89.4805 9.6875 90.7773 9.51172 92.2617 9.51172C93.7461 9.51172 95.0391 9.6875 96.1406 10.0391C97.25 10.3828 98.1719 10.8672 98.9062 11.4922C99.6406 12.1094 100.191 12.8438 100.559 13.6953C100.926 14.5469 101.109 15.4766 101.109 16.4844C101.109 17.4922 100.926 18.4219 100.559 19.2734C100.191 20.1172 99.6406 20.8516 98.9062 21.4766C98.1719 22.0938 97.25 22.5781 96.1406 22.9297C95.0391 23.2734 93.7461 23.4453 92.2617 23.4453C90.7773 23.4453 89.4805 23.2734 88.3711 22.9297C87.2617 22.5781 86.3398 22.0938 85.6055 21.4766C84.8711 20.8516 84.3203 20.1172 83.9531 19.2734C83.5859 18.4219 83.4023 17.4922 83.4023 16.4844ZM92.2617 22.7188C92.5586 22.7188 92.8125 22.6211 93.0234 22.4258C93.2344 22.2305 93.4062 21.8945 93.5391 21.418C93.6719 20.9414 93.7656 20.3047 93.8203 19.5078C93.8828 18.7031 93.9141 17.6953 93.9141 16.4844C93.9141 15.2656 93.8828 14.2578 93.8203 13.4609C93.7656 12.6562 93.6719 12.0156 93.5391 11.5391C93.4062 11.0625 93.2344 10.7266 93.0234 10.5312C92.8125 10.3359 92.5586 10.2383 92.2617 10.2383C91.957 10.2383 91.6992 10.3359 91.4883 10.5312C91.2773 10.7266 91.1055 11.0625 90.9727 11.5391C90.8398 12.0156 90.7422 12.6562 90.6797 13.4609C90.625 14.2578 90.5977 15.2656 90.5977 16.4844C90.5977 17.6953 90.625 18.7031 90.6797 19.5078C90.7422 20.3047 90.8398 20.9414 90.9727 21.418C91.1055 21.8945 91.2773 22.2305 91.4883 22.4258C91.6992 22.6211 91.957 22.7188 92.2617 22.7188ZM103.102 22.1562H105.152V10.8008H103.102V9.95703H112.125V11.457C112.375 11.1523 112.676 10.8789 113.027 10.6367C113.387 10.3945 113.781 10.1914 114.211 10.0273C114.641 9.85547 115.098 9.72656 115.582 9.64062C116.074 9.55469 116.578 9.51172 117.094 9.51172C118.156 9.51172 119.031 9.65234 119.719 9.93359C120.414 10.207 120.961 10.6016 121.359 11.1172C121.758 11.625 122.035 12.2461 122.191 12.9805C122.348 13.707 122.426 14.5195 122.426 15.418V22.1562H124.477V23H114.281V22.1562H115.453V15.418C115.453 14.6133 115.43 13.957 115.383 13.4492C115.336 12.9336 115.254 12.5312 115.137 12.2422C115.02 11.9453 114.863 11.7422 114.668 11.6328C114.473 11.5156 114.227 11.457 113.93 11.457C113.633 11.457 113.371 11.5195 113.145 11.6445C112.918 11.7695 112.727 11.9453 112.57 12.1719C112.422 12.3984 112.309 12.668 112.23 12.9805C112.16 13.293 112.125 13.6328 112.125 14V22.1562H113.285V23H103.102V22.1562Z" fill="#080707"/>
</svg>
