<svg width="34" height="29" viewBox="0 0 34 29" fill="none" xmlns="http://www.w3.org/2000/svg">
<path fill-rule="evenodd" clip-rule="evenodd" d="M16.7049 2.95168L16.9999 3.25001L17.2949 2.95335C19.0935 1.15474 21.533 0.144287 24.0766 0.144287C26.6202 0.144287 29.0596 1.15474 30.8582 2.95335C32.6569 4.75196 33.6673 7.19139 33.6673 9.73501C33.6673 12.2786 32.6569 14.7181 30.8582 16.5167L19.6516 27.7217C19.3034 28.0699 18.89 28.3461 18.435 28.5346C17.98 28.723 17.4924 28.82 16.9999 28.82C16.5075 28.82 16.0198 28.723 15.5648 28.5346C15.1099 28.3461 14.6965 28.0699 14.3482 27.7217L3.14158 16.5167C2.251 15.6261 1.54455 14.5688 1.06257 13.4052C0.580591 12.2416 0.33252 10.9945 0.33252 9.73501C0.33252 8.47554 0.580591 7.2284 1.06257 6.0648C1.54455 4.9012 2.251 3.84393 3.14158 2.95335C4.03216 2.06276 5.08943 1.35632 6.25303 0.874337C7.41663 0.392358 8.66377 0.144287 9.92324 0.144287C11.1827 0.144287 12.4299 0.392358 13.5935 0.874337C14.7571 1.35632 15.8143 2.0611 16.7049 2.95168ZM14.9366 4.72001C13.6067 3.39039 11.8032 2.64351 9.92266 2.64367C8.04213 2.64382 6.2387 3.39101 4.90908 4.72085C3.57946 6.05068 2.83257 7.85425 2.83273 9.73477C2.83289 11.6153 3.58007 13.4187 4.90991 14.7483L16.1166 25.955C16.351 26.1891 16.6687 26.3206 16.9999 26.3206C17.3312 26.3206 17.6489 26.1891 17.8832 25.955L29.0899 14.7483C30.4094 13.4166 31.1477 11.6165 31.1433 9.74181C31.139 7.86712 30.3924 6.07045 29.0668 4.74484C27.7411 3.41923 25.9445 2.67259 24.0698 2.66824C22.1951 2.6639 20.395 3.40222 19.0632 4.72168L17.8832 5.90168C17.6489 6.13576 17.3312 6.26725 16.9999 6.26725C16.6687 6.26725 16.351 6.13576 16.1166 5.90168L14.9366 4.72001Z" fill="#DE8458"/>
</svg>
