<svg width="28" height="29" viewBox="0 0 28 29" fill="none" xmlns="http://www.w3.org/2000/svg">
<path d="M14.5075 0.964693C14.3455 0.818915 14.1459 0.739746 13.9404 0.739746C13.7349 0.739746 13.5353 0.818915 13.3733 0.964693L0.25 12.7721L1.38516 14.4286L2.98973 12.985V26.0295C2.99069 26.5881 3.18343 27.1235 3.52576 27.5185C3.86808 27.9135 4.33209 28.1359 4.81621 28.137H23.0811C23.5652 28.1359 24.0292 27.9135 24.3715 27.5185C24.7138 27.1235 24.9066 26.5881 24.9075 26.0295V12.9944L26.5121 14.4381L27.6473 12.7816L14.5075 0.964693ZM15.7751 26.0295H12.1221V17.5994H15.7751V26.0295ZM17.6016 26.0295V17.5994C17.6016 17.0404 17.4092 16.5044 17.0666 16.1091C16.7241 15.7139 16.2595 15.4919 15.7751 15.4919H12.1221C11.6377 15.4919 11.1732 15.7139 10.8306 16.1091C10.4881 16.5044 10.2957 17.0404 10.2957 17.5994V26.0295H4.81621V11.3421L13.9486 3.13334L23.0811 11.3527V26.0295H17.6016Z" fill="#F12020"/>
</svg>
